# xmcd CD database file
#
# Track frame offsets:
#	150
#	22557
#	45289
#	60317
#	74521
#	119377
#	136420
#	159442
#	178853
#	198338
#	214377
#	231189
#	267155
#	286644
#	306124
#	334040
#
# Disc length: 4723 seconds
#
# Revision: 0
# Processed by: cddbd v1.5.1PL2 Copyright (c) Steve Scherf et al.
# Submitted via: Feurio! 1.68 - http://www.feurio.com
#
DISCID=db127110
DTITLE=Little Milton - Blues In The Night
DYEAR=1900
DGENRE=Blues
TTITLE0=Blue Monday
TTITLE1=Annie Mae's Cafe
TTITLE2=Blind Man
TTITLE3=Blues In The Night
TTITLE4=Eight Men, Four Women
TTITLE5=Gimme My Broom
TTITLE6=I'm  At The End Of My Rainbow
TTITLE7=Little Bluebird
TTITLE8=Me And My Woman
TTITLE9=Mother Earth
TTITLE10=Never Trust A Woman
TTITLE11=That's How Strong My Love Is
TTITLE12=The Blues Is Alright
TTITLE13=They Call It Stormy Monday
TTITLE14=Walking The Backstreets And Cryin
TTITLE15=I'd Rather Drink Muddy Water
EXTD=
EXTT0=
EXTT1=
EXTT2=
EXTT3=
EXTT4=
EXTT5=
EXTT6=
EXTT7=
EXTT8=
EXTT9=
EXTT10=
EXTT11=
EXTT12=
EXTT13=
EXTT14=
EXTT15=
PLAYORDER=
